<?xml version="1.0" encoding="UTF-8"?>
<!DOCTYPE svg PUBLIC "-//W3C//DTD SVG 1.1//EN" "http://www.w3.org/Graphics/SVG/1.1/DTD/svg11.dtd">
<!-- Creator: CorelDRAW -->
<svg xmlns="http://www.w3.org/2000/svg" xml:space="preserve" width="205.877mm" height="83.5716mm" version="1.1" style="shape-rendering:geometricPrecision; text-rendering:geometricPrecision; image-rendering:optimizeQuality; fill-rule:evenodd; clip-rule:evenodd"
viewBox="0 0 20079.85 8150.99"
 xmlns:xlink="http://www.w3.org/1999/xlink"
 xmlns:xodm="http://www.corel.com/coreldraw/odm/2003">
 <defs>
  <style type="text/css">
   <![CDATA[
    .str0 {stroke:black;stroke-width:7.43;stroke-miterlimit:22.9256}
    .fil0 {fill:none}
    .fil2 {fill:#B08E3D}
    .fil1 {fill:#DCAD43}
   ]]>
  </style>
 </defs>
 <g id="Слой_x0020_1">
  <metadata id="CorelCorpID_0Corel-Layer"/>
  <path class="fil0 str0" d="M178.08 5374.29l39.57 67.09 -39.57 -67.09zm0 0l-69.18 -274.89c-41.66,-261.13 -122.9,-784.55 -101.78,-1031.26 173.85,-2029.79 771.88,-1455.01 2058.34,-2483.72 567.77,-454.02 1164.74,-877.53 1842.54,-1150.9 654.62,-264.02 1891.83,-394.55 2635.41,-392.45 409.68,1.16 1097.87,40.6 1475.51,-4.59 744.15,-89.09 1916.85,4.57 2700.85,266.9 413.22,138.25 908.08,380.39 1253.73,604.28l665.15 470.3c147.3,110.56 287.33,206.77 431.81,325.16 712.48,583.84 500.9,481.09 1633.11,637.78 441.45,61.09 880.36,127.41 1299.66,214.27 984.68,204 2295.26,468.86 3145.25,983.65 200.84,121.64 418.02,389.02 490.9,644.55 57.19,200.53 61.54,455.42 151.33,605.63 58.02,97.07 72.38,85.78 116.64,227.43 33.48,107.15 56.07,197.15 57.78,323.38 4.93,362.57 -205.8,843.63 -204.56,930.25 3.13,216.85 1052.76,998.8 -689.33,1344.18 -208.36,41.31 -420.2,73.44 -651.83,105.14 -494.64,67.69 -1928.79,269.12 -2344.34,270.62 -175.57,0.63 -224.04,15.02 -349.17,29.31 -118.42,13.52 -254.93,0.09 -375.4,3.08 -170.55,4.23 -170.85,32.6 -341.5,36.97 -245.35,6.29 -513.49,-15.9 -755.78,2.31 -129.52,9.73 -106.75,24.54 -275.27,30.64 -123.77,4.47 -256.22,0.19 -380.94,0.18 -252.33,-0.03 -504.65,-0.01 -756.96,0l-2153.67 -117.34c-87.66,-13.4 -278,-37.77 -318.5,-32.01 -209.21,29.75 -72.25,184.03 -934.16,183.75 -643.81,-0.2 -1582.62,137.75 -1970.46,-300.44 -512.93,-579.49 272.49,-444.47 -1347.34,-717.1 -405.96,-68.33 -746.3,-136.89 -1149.81,-192.09 -486.61,-66.57 -1876.14,-339.81 -2276.26,-373.1 -154.81,292.58 -306.19,474.74 -721.13,483.12 -869.28,17.58 -1366.04,86.44 -1570.12,-841.24 -309.66,-1407.53 273.82,-3033.7 840.03,-2181.92 377.71,568.21 419,1333.5 419,2023.93l68.81 0c0,-594.35 137.38,-1989.55 -509.27,-2484.17 -423.05,-323.59 -743.7,135.79 -854.59,466.56 -141.75,422.83 -184.47,813.6 -184.47,1363.87z"/>
  <path class="fil0 str0" d="M6164.98 522.85l612.65 1004.49c141.38,232.34 494.42,922.32 763.64,922.32l1425.03 -54.48c416.34,-66.34 988.14,-14.05 1429.57,-49.95 130.38,-10.6 141.72,-33.06 309.56,-34.53l2513.06 -33.08c-90.2,-170.46 -119.96,-122.59 -283.28,-267.23 -299.51,-265.27 -649.95,-515.41 -982.92,-737.46 -445.72,-297.24 -938.82,-585.71 -1535.6,-735.29 -628.2,-157.45 -1386.43,-117.1 -2152.89,-118.04l-2098.83 103.25z"/>
  <path class="fil0 str0" d="M13184.1 5099.03c236.77,0 639.94,-461.56 722.56,-584.92l-1706.01 -392.85c-175.5,-39.32 -2603.63,-492.85 -2499.12,-149.15 6.19,20.38 106.47,147.51 129.87,178.57 256.93,341.01 523.06,502.24 904.45,643.99 612.18,227.54 1699.23,304.36 2448.23,304.36z"/>
  <path class="fil0 str0" d="M2380.16 2036.77c0,-78.08 26.63,-77.41 72.37,-134.07 115.55,-143.12 417.08,-380.69 571.06,-495.58 246.4,-183.86 560.2,-342.74 849.58,-457.91 485.67,-193.3 1208.02,-253.55 1652.42,40.99 451.97,299.56 727.68,831.08 898.66,1337.82 29.72,88.06 14.22,80.63 50.41,156.04l-3637.62 -250.44c-218.54,-29.07 -289.49,-15.96 -456.87,-128.05l0 -68.81zm-240.85 68.81c0,332.84 592.68,307.1 978.2,363.7 405.83,59.57 807.18,86.95 1221.68,120.2 471.21,37.79 2184.97,169.66 2479.53,101.03 -19.37,-83.19 -88.62,-263.35 -127.25,-354.45 -283.51,-668.66 -765.93,-1778.82 -1627.52,-1778.82 -812.74,0 -1197,142.39 -1847.15,526.98 -230.74,136.5 -404.15,261.65 -606.3,425.91 -160.24,130.2 -471.18,339.42 -471.18,595.45z"/>
  <path class="fil0 str0" d="M10741.17 6991.45c0,106.93 68.07,226.19 127.55,285.33 545.31,542.1 4517.89,322.36 5413.31,300.86l1389.45 -124.48c118.87,-17.8 227.73,-15.49 344.93,-33.56 128.95,-19.87 220.15,-33.05 330.55,-47.94 215.41,-29.03 1062.1,-119.74 1202.52,-311.4l-1512.13 139.42c-239.11,18 -490.3,48.7 -756.96,68.82 -1058.15,79.84 -1242.97,90.08 -2377.23,100.11 -183,1.62 -221.8,44.33 -374.66,35.8 -132.24,-7.37 -193.23,-35.32 -380.53,-35.2 -332.8,0.2 -765.34,54.38 -1136.45,35.69 -153.39,-7.73 -163.14,-35.2 -342.24,-36.24 -353.25,-2.06 -981.13,-51.1 -1317.45,-127.67 -651.36,-148.3 -286.48,-581.76 -163.35,-765.65 -261.35,5.82 -447.3,248.45 -447.3,516.12z"/>
  <path class="fil0 str0" d="M6853.13 5615.15l172.04 1238.67c0,-779.38 -85.62,-1634.74 363.86,-2285.52 385.27,-557.81 1046.01,-452.66 1445.83,62.94 533.91,688.53 598.84,1645.62 598.84,2601.06l68.81 0c0,-574.12 169.3,-894.67 -20.2,-1768.99 -518.53,-2392.6 -2629.18,-2116.87 -2629.18,151.85z"/>
  <path class="fil0 str0" d="M6474.65 6406.51c-14.14,-129.25 -38.67,-129.44 -358.39,-260.93 -573.27,-235.79 -788.22,-318.48 -1430.8,-496.03 -167.88,-46.39 -1889.74,-447.3 -2133.26,-447.3 128.32,191.62 723.34,290 929.34,343.75l2993.11 860.51z"/>
  <path class="fil1" d="M6853.13 5615.15c0,-2268.71 2110.64,-2544.45 2629.18,-151.85 189.5,874.32 20.2,1194.88 20.2,1768.99l-68.81 0c0,-955.44 -64.94,-1912.52 -598.84,-2601.06 -399.82,-515.6 -1060.56,-620.75 -1445.83,-62.94 -449.48,650.78 -363.86,1506.14 -363.86,2285.52l-172.04 -1238.67zm3882.74 -820.48c-381.39,-141.75 -647.52,-302.98 -904.45,-643.99 -23.41,-31.06 -123.68,-158.19 -129.87,-178.57 -104.52,-343.71 2323.62,109.83 2499.12,149.15l1706.01 392.85c-82.62,123.37 -485.79,584.92 -722.56,584.92 -749,0 -1836.06,-76.82 -2448.23,-304.36zm8335.37 2819.56c1742.1,-345.38 692.46,-1127.33 689.33,-1344.18 -1.25,-86.62 209.48,-567.68 204.56,-930.25 -1.71,-126.23 -24.3,-216.23 -57.78,-323.38 -44.26,-141.65 -58.62,-130.35 -116.64,-227.43 -89.79,-150.21 -94.14,-405.1 -151.33,-605.63 -72.89,-255.53 -290.06,-522.9 -490.9,-644.55 -849.99,-514.79 -2160.57,-779.65 -3145.25,-983.65 -419.29,-86.86 -858.2,-153.18 -1299.66,-214.27 -1132.21,-156.69 -920.63,-53.94 -1633.11,-637.78 -144.48,-118.39 -284.5,-214.59 -431.81,-325.16l-665.15 -470.3c-345.65,-223.89 -840.51,-466.02 -1253.73,-604.28 -784.01,-262.32 -1956.71,-355.99 -2700.85,-266.9 -377.64,45.2 -1065.83,5.75 -1475.51,4.59 -743.58,-2.1 -1980.79,128.43 -2635.41,392.45 -677.81,273.37 -1274.78,696.88 -1842.54,1150.9 -1286.46,1028.71 -1884.48,453.93 -2058.34,2483.72 -21.13,246.71 60.12,770.12 101.78,1031.26l69.18 274.89c0,-550.27 42.72,-941.04 184.47,-1363.87 110.9,-330.77 431.54,-790.15 854.59,-466.56 646.64,494.63 509.27,1889.83 509.27,2484.17l-68.81 0c0,-690.43 -41.3,-1455.72 -419,-2023.93 -566.21,-851.78 -1149.69,774.39 -840.03,2181.92 204.09,927.68 700.84,858.82 1570.12,841.24 414.94,-8.38 566.32,-190.54 721.13,-483.12 400.12,33.29 1789.65,306.54 2276.26,373.1 403.5,55.2 743.85,123.76 1149.81,192.09 1619.83,272.63 834.41,137.61 1347.34,717.1 387.84,438.19 1326.65,300.24 1970.46,300.44 861.91,0.28 724.95,-154 934.16,-183.75 40.51,-5.76 230.84,18.61 318.5,32.01l2153.67 117.34c252.32,-0.01 504.64,-0.03 756.96,0 124.73,0.01 257.17,4.29 380.94,-0.18 168.52,-6.1 145.74,-20.9 275.27,-30.64 242.29,-18.21 510.43,3.98 755.78,-2.31 170.65,-4.38 170.96,-32.74 341.5,-36.97 120.47,-2.99 256.98,10.44 375.4,-3.08 125.13,-14.29 173.6,-28.67 349.17,-29.31 415.55,-1.5 1849.7,-202.94 2344.34,-270.62 231.63,-31.7 443.47,-63.83 651.83,-105.14zm-12954.98 -1468.65c319.72,131.49 344.25,131.68 358.39,260.93l-2993.11 -860.51c-206,-53.74 -801.02,-152.12 -929.34,-343.75 243.52,0 1965.38,400.91 2133.26,447.3 642.58,177.55 857.53,260.25 1430.8,496.03zm4752.47 1131.2c-59.49,-59.14 -127.55,-178.41 -127.55,-285.33 0,-267.67 185.95,-510.29 447.3,-516.12 -123.14,183.89 -488.02,617.35 163.35,765.65 336.31,76.57 964.19,125.61 1317.45,127.67 179.1,1.04 188.85,28.51 342.24,36.24 371.11,18.7 803.65,-35.48 1136.45,-35.69 187.3,-0.12 248.3,27.83 380.53,35.2 152.86,8.52 191.66,-34.19 374.66,-35.8 1134.26,-10.03 1319.08,-20.27 2377.23,-100.11 266.66,-20.12 517.85,-50.81 756.96,-68.82l1512.13 -139.42c-140.42,191.66 -987.11,282.38 -1202.52,311.4 -110.4,14.88 -201.6,28.07 -330.55,47.94 -117.2,18.07 -226.05,15.76 -344.93,33.56l-1389.45 124.48c-895.42,21.5 -4868.01,241.24 -5413.31,-300.86zm-4050.01 -4586.26c-294.56,68.62 -2008.32,-63.24 -2479.53,-101.03 -414.5,-33.25 -815.84,-60.63 -1221.68,-120.2 -385.52,-56.6 -978.2,-30.86 -978.2,-363.7 0,-256.02 310.94,-465.25 471.18,-595.45 202.16,-164.26 375.56,-289.41 606.3,-425.91 650.15,-384.59 1034.41,-526.98 1847.15,-526.98 861.6,0 1344.01,1110.16 1627.52,1778.82 38.63,91.11 107.88,271.27 127.25,354.45zm2147.6 -295.34l-1425.03 54.48c-269.22,0 -622.26,-689.98 -763.64,-922.32l-612.65 -1004.49 2098.83 -103.25c766.46,0.95 1524.69,-39.4 2152.89,118.04 596.78,149.58 1089.88,438.05 1535.6,735.29 332.97,222.04 683.4,472.19 982.92,737.46 163.33,144.64 193.09,96.77 283.28,267.23l-2513.06 33.08c-167.84,1.46 -179.18,23.92 -309.56,34.53 -441.43,35.89 -1013.23,-16.4 -1429.57,49.95z"/>
  <path class="fil2" d="M3873.16 949.21c485.67,-193.3 1208.02,-253.55 1652.42,40.99 451.97,299.56 727.68,831.08 898.66,1337.82 29.72,88.06 14.22,80.63 50.41,156.04l-3637.62 -250.44c-218.54,-29.07 -289.49,-15.96 -456.87,-128.05l0 -68.81c0,-78.08 26.63,-77.41 72.37,-134.07 115.55,-143.12 417.08,-380.69 571.06,-495.58 246.4,-183.86 560.2,-342.74 849.58,-457.91zm466.02 1640.27c471.21,37.79 2184.97,169.66 2479.53,101.03 -19.37,-83.19 -88.62,-263.35 -127.25,-354.45 -283.51,-668.66 -765.93,-1778.82 -1627.52,-1778.82 -812.74,0 -1197,142.39 -1847.15,526.98 -230.74,136.5 -404.15,261.65 -606.3,425.91 -160.24,130.2 -471.18,339.42 -471.18,595.45 0,332.84 592.68,307.1 978.2,363.7 405.83,59.57 807.18,86.95 1221.68,120.2z"/>
 </g>
</svg>
