<?xml version="1.0" encoding="UTF-8"?>
<!DOCTYPE svg PUBLIC "-//W3C//DTD SVG 1.1//EN" "http://www.w3.org/Graphics/SVG/1.1/DTD/svg11.dtd">
<!-- Creator: CorelDRAW -->
<svg xmlns="http://www.w3.org/2000/svg" xml:space="preserve" width="239.4mm" height="160.217mm" version="1.1" style="shape-rendering:geometricPrecision; text-rendering:geometricPrecision; image-rendering:optimizeQuality; fill-rule:evenodd; clip-rule:evenodd"
viewBox="0 0 23431.09 15681.1"
 xmlns:xlink="http://www.w3.org/1999/xlink"
 xmlns:xodm="http://www.corel.com/coreldraw/odm/2003">
 <defs>
  <style type="text/css">
   <![CDATA[
    .str0 {stroke:black;stroke-width:7.46;stroke-miterlimit:22.9256}
    .fil0 {fill:none}
    .fil1 {fill:black}
    .fil3 {fill:#B08E3D}
    .fil2 {fill:#DCAD43}
   ]]>
  </style>
 </defs>
 <g id="Слой_x0020_1">
  <metadata id="CorelCorpID_0Corel-Layer"/>
  <path class="fil0 str0" d="M1818.84 5393.09l39.71 67.33 -39.71 -67.33zm0 0l-69.42 -275.85c-41.8,-262.05 -123.33,-787.29 -102.13,-1034.86 174.46,-2036.89 774.58,-1460.1 2065.53,-2492.4 569.75,-455.6 1168.81,-880.6 1848.99,-1154.92 656.91,-264.95 1898.44,-395.93 2644.63,-393.83 411.11,1.16 1101.71,40.74 1480.67,-4.61 746.75,-89.4 1923.55,4.59 2710.3,267.83 414.66,138.74 911.26,381.72 1258.11,606.39l667.47 471.95c147.82,110.95 288.34,207.49 433.32,326.29 714.97,585.88 502.65,482.77 1638.82,640.01 443,61.31 883.44,127.85 1304.2,215.02 988.13,204.71 2303.29,470.5 3156.25,987.09 201.54,122.07 419.48,390.38 492.62,646.8 57.39,201.23 61.76,457.01 151.86,607.75 58.23,97.41 72.63,86.08 117.05,228.22 33.6,107.52 56.27,197.84 57.98,324.51 4.94,363.84 -206.52,846.58 -205.27,933.5 3.14,217.6 1056.44,1002.29 -691.74,1348.88 -209.09,41.46 -421.67,73.7 -654.11,105.51 -496.37,67.92 -1935.54,270.06 -2352.54,271.57 -176.18,0.64 -224.83,15.07 -350.39,29.41 -118.84,13.57 -255.82,0.09 -376.72,3.09 -171.14,4.25 -171.45,32.71 -342.7,37.1 -246.21,6.31 -515.29,-15.95 -758.43,2.32 -129.98,9.77 -107.12,24.63 -276.23,30.74 -124.2,4.48 -257.12,0.19 -382.28,0.18 -253.21,-0.03 -506.41,-0.01 -759.61,0l-2161.21 -117.75c-87.97,-13.45 -278.97,-37.91 -319.62,-32.12 -209.94,29.85 -72.51,184.68 -937.43,184.39 -646.06,-0.21 -1588.15,138.23 -1977.35,-301.49 -514.72,-581.52 273.44,-446.02 -1352.05,-719.61 -407.38,-68.57 -748.91,-137.37 -1153.83,-192.76 -488.31,-66.8 -1882.71,-341 -2284.22,-374.41 -155.36,293.6 -307.26,476.4 -723.65,484.81 -872.32,17.64 -1370.81,86.75 -1575.62,-844.18 -310.74,-1412.45 274.78,-3044.3 842.97,-2189.55 379.03,570.19 420.47,1338.16 420.47,2031l69.05 0c0,-596.43 137.86,-1996.5 -511.05,-2492.86 -424.53,-324.73 -746.3,136.26 -857.58,468.19 -142.25,424.31 -185.12,816.45 -185.12,1368.64z"/>
  <path class="fil0 str0" d="M7826.69 524.67l614.8 1008.01c141.88,233.16 496.15,925.55 766.31,925.55l1430.02 -54.67c417.8,-66.57 991.59,-14.1 1434.57,-50.12 130.84,-10.64 142.21,-33.18 310.64,-34.65l2521.85 -33.2c-90.51,-171.05 -120.38,-123.02 -284.28,-268.17 -300.56,-266.2 -652.22,-517.22 -986.36,-740.04 -447.27,-298.28 -942.11,-587.76 -1540.97,-737.86 -630.4,-158 -1391.28,-117.51 -2160.42,-118.46l-2106.17 103.61z"/>
  <path class="fil0 str0" d="M14870.35 5116.87c237.6,0 642.18,-463.17 725.09,-586.97l-1711.97 -394.23c-176.11,-39.45 -2612.74,-494.58 -2507.86,-149.67 6.22,20.46 106.84,148.02 130.33,179.2 257.83,342.21 524.89,503.99 907.62,646.24 614.32,228.34 1705.17,305.43 2456.8,305.43z"/>
  <path class="fil0 str0" d="M4028.62 2043.89c0,-78.35 26.72,-77.68 72.62,-134.54 115.95,-143.62 418.54,-382.02 573.05,-497.32 247.26,-184.5 562.16,-343.94 852.55,-459.51 487.36,-193.98 1212.25,-254.43 1658.2,41.14 453.55,300.61 730.23,833.99 901.8,1342.5 29.82,88.37 14.27,80.91 50.58,156.59l-3650.34 -251.31c-219.31,-29.18 -290.5,-16.01 -458.47,-128.5l0 -69.05zm-241.69 69.05c0,334.01 594.75,308.18 981.62,364.97 407.25,59.78 810.01,87.25 1225.95,120.62 472.86,37.93 2192.61,170.25 2488.2,101.39 -19.44,-83.48 -88.93,-264.27 -127.7,-355.69 -284.5,-671 -768.61,-1785.04 -1633.22,-1785.04 -815.58,0 -1201.19,142.89 -1853.61,528.82 -231.55,136.97 -405.56,262.57 -608.42,427.4 -160.8,130.65 -472.83,340.61 -472.83,597.53z"/>
  <path class="fil0 str0" d="M12418.88 7015.9c0,107.3 68.31,226.98 128,286.33 547.21,543.99 4533.69,323.48 5432.25,301.91l1394.3 -124.92c119.29,-17.86 228.53,-15.54 346.13,-33.68 129.4,-19.94 220.92,-33.17 331.71,-48.11 216.16,-29.13 1065.82,-120.16 1206.73,-312.49l-1517.42 139.91c-239.95,18.07 -492.01,48.87 -759.61,69.06 -1061.85,80.12 -1247.32,90.4 -2385.54,100.46 -183.64,1.62 -222.58,44.48 -375.97,35.93 -132.7,-7.4 -193.91,-35.44 -381.87,-35.32 -333.97,0.21 -768.02,54.57 -1140.43,35.81 -153.93,-7.76 -163.71,-35.32 -343.44,-36.37 -354.49,-2.07 -984.56,-51.28 -1322.05,-128.12 -653.64,-148.82 -287.49,-583.8 -163.92,-768.33 -262.26,5.84 -448.86,249.31 -448.86,517.92z"/>
  <path class="fil0 str0" d="M8517.24 5634.79l172.64 1243c0,-782.1 -85.92,-1640.46 365.13,-2293.51 386.61,-559.76 1049.67,-454.24 1450.89,63.16 535.77,690.94 600.94,1651.37 600.94,2610.15l69.05 0c0,-576.13 169.89,-897.8 -20.27,-1775.18 -520.35,-2400.97 -2638.37,-2124.27 -2638.37,152.38z"/>
  <path class="fil0 str0" d="M8137.44 6428.92c-14.19,-129.7 -38.81,-129.89 -359.65,-261.84 -575.27,-236.61 -790.98,-319.6 -1435.8,-497.77 -168.47,-46.55 -1896.35,-448.86 -2140.72,-448.86 128.77,192.29 725.87,291.02 932.59,344.95l3003.58 863.52z"/>
  <path class="fil1" d="M1683.6 11820.08l432.49 517.92c-102.76,76.84 -257.43,104.36 -385.64,101.71 -139.19,-2.88 -303.57,-44.1 -411.83,-99.2 -783.05,-398.45 -603.62,-1634.48 -238.39,-2032.67 652.15,-711 2069.44,-54.86 1530.77,1556.43 -8.97,-5.78 -21.27,-26.44 -25.51,-19.33 -4.12,6.89 -18.97,-14.4 -24.46,-19.15 -250.64,-216.89 -322.45,-426.01 -503.41,-510.84 -74.76,117.46 -100.91,134.45 -177.98,237.47 -68.86,92.05 -120.23,169.22 -196.03,267.66zm875.86 1134.88c105.19,102.43 98.93,129.77 175.02,212.15l204.78 209.88c84.51,-48.7 474.46,-284.26 529.86,-335.91 -57.98,-187.79 -319.33,-317.84 -397.79,-555.22 625.48,-406.37 762.68,-2924.29 -1064.8,-3145.2 -694.61,-83.97 -1393.14,206.35 -1729.52,814.38 -344.62,622.93 -364.52,1506.67 -77.32,2096.85 76.08,156.33 259.9,383.31 357.04,467.13 843.09,727.44 1664.62,277.38 2002.73,235.94z"/>
  <path class="fil1" d="M5169.4 10247.76c49.79,57.98 14.56,-10.87 67.27,109.09l405.19 1299.18 -893.31 0.52 420.85 -1408.79zm-1634.49 2772.48l750.93 -5.18 250.57 -710.09 1318.06 -10.91 210.63 710.21 833.16 11.45c-107.77,-206.35 -1130.83,-3414.93 -1164.14,-3553.38l-1076.13 -1.02c-45.42,268.38 -187.27,623.07 -270.24,903.03l-852.85 2655.88z"/>
  <path class="fil1" d="M18555.08 11233.11c-205.08,408.65 -909.7,1428.97 -1098.25,1782.34l887.46 0.95c77.78,-179.34 250.91,-408.48 359.22,-585.97 123.6,-202.56 255.57,-406.9 365.84,-604.64 84.82,94.27 120.66,180.02 185.07,290.1l547.67 897.95 887.01 -0.09c-56.25,-128.6 -196.7,-313.73 -272.07,-443.27l-845.05 -1371.89c52.04,-155.9 173.81,-288.99 260.81,-435.92 145.72,-246.11 744.69,-1164 779.34,-1302.32l-908.65 3.49c-81.51,190.24 -198.4,348.06 -309.08,541.89l-313.53 583.03c-8.3,-6.86 -20.13,-28.21 -24.08,-21.54 -4.2,7.13 -29.15,-26.05 -43.59,-42.72 -7.11,-8.2 -43.34,-56.9 -47.49,-62.91 -38.23,-55.36 -59.34,-98.78 -88.23,-149.99l-504.31 -840.82 -895.56 -10.67 809.38 1309.9c89.11,127.14 214.44,312.8 268.07,463.12z"/>
  <polygon class="fil1" points="21109.87,9955.58 21110.01,13012.48 23431.09,13016.82 23428.23,12310.52 21859.94,12307.53 21875.21,11630.65 23184.86,11611.54 23178.12,10916.38 21860.06,10908.02 21873.03,10182.78 23336.5,10172.06 23334.65,9460.62 21107.79,9462.86 "/>
  <path class="fil1" d="M17086.7 9464.61l-708.18 -2.98c6.67,587.94 0.92,1180.81 1.07,1771.47 0.16,600 7.55,1159.75 -664.8,1147.77 -759.25,-13.53 -647.45,-775.08 -649.21,-1113.24 -3.09,-591.6 -18.21,-1219.43 7.56,-1807.61l-775.22 5.23c18.37,728.1 -71.56,1841.44 25.63,2511.95 93.46,644.73 627.82,1128.19 1356.47,1144.56 727.82,16.34 1291.72,-457.98 1384.61,-1117.71 53.15,-377.39 -3.63,-1943.15 22.07,-2539.44z"/>
  <path class="fil1" d="M7263.2 9679.36l1.58 504.38 1665.14 -2.11 -1583 2107.98c-155.75,206.29 -116.98,394.41 -114.11,717.12l2749.2 7.31 1.56 -691.89 -1752.8 2.83c9.89,-114.67 5.39,-54.75 86.72,-163.93l1616.12 -2148.74c77.66,-130.88 46.62,-377.27 50.96,-555.49l-2720.43 4.56 -0.94 217.98z"/>
  <polygon class="fil1" points="11765.87,13016.64 13845.54,13014.77 13850.75,12310.76 12511.26,12314.82 12527.3,9463.45 11759.65,9462.58 "/>
  <path class="fil1" d="M16241.62 15644.64l410.45 -0.7 -3.2 -1151.9c100.27,82.15 682.78,981.08 790.67,1149.75l419.96 1.05 -2.41 -1866.54 -405.89 5.47 8.25 1197.23 -798.3 -1197.53 -421.65 -4.23 2.12 1867.4z"/>
  <path class="fil1" d="M3812.27 14152.47c502.17,24.23 821.41,11.12 829.7,568.22 9.17,615.94 -544.06,566.24 -824.57,582.42l-5.13 -1150.64zm-403.08 1493.14c385.69,-7.78 861.73,58.74 1178.06,-108.34 660.47,-348.83 612.99,-1301.58 45.92,-1643.07 -262.81,-158.26 -882.79,-106.55 -1228.15,-116.36l4.17 1867.77z"/>
  <path class="fil1" d="M20336.93 14591.22l-814.18 2.97 -2.23 327.64 444.33 2.58c-31.83,738.49 -1272.27,449.02 -958.86,-462.97 116.32,-338.51 560.18,-529.45 920.95,-110.31l343.91 -134.94c-191.95,-486.37 -827.93,-547.66 -1192.72,-375.39 -952.03,449.59 -580.54,2032.37 588.67,1820.96 279.01,-50.44 389.66,-140.32 548.04,-305.53 190.05,-198.24 105.01,-427.74 122.1,-765z"/>
  <path class="fil1" d="M10289.87 14241.99c76.24,96.28 216.4,578.49 250.1,704.84l-490.58 -0.6 240.49 -704.24zm-920.18 1404.2l449 -3.41c10.83,-59.61 24.71,-117.3 43.51,-173.07 30.39,-90.16 36.31,-105.38 86.2,-173.19l729.48 -8.27 103.38 355.3 439.09 -1.17c-124.04,-444.02 -489.42,-1320.88 -659.19,-1856.65l-509.16 -6.44 -682.31 1866.9z"/>
  <path class="fil1" d="M5699.17 15645.02l1271.75 -2.28 -3.48 -349.62 -817.09 1.9c-33.87,-112.57 -22.55,-268.74 -22.22,-389.74l737.16 -12.62 -19.24 -319.25 -726.24 -19.01 10.23 -376.36 842.47 -18.27 -2.81 -379.19 -1274.18 0.75 3.66 1863.68z"/>
  <polygon class="fil1" points="7547.87,14179.16 8127.89,14174.65 8127.72,15644.69 8542.62,15642.15 8538.18,14192.82 9092.38,14178.02 9093.96,13785.18 7540.17,13781.89 "/>
  <polygon class="fil1" points="13133.24,15644.91 14355.91,15642.66 14349.25,15294.86 13537.21,15290.18 13550.19,13780.14 13124.96,13780.85 "/>
  <polygon class="fil1" points="15014.8,15633.51 15441.03,15643.34 15439.9,13775.3 15003.07,13783.88 "/>
  <polygon class="fil1" points="11873.07,15631.66 12298.92,15644.85 12294.65,13773.5 11865.87,13784.34 "/>
  <path class="fil2" d="M8517.24 5634.79c0,-2276.65 2118.02,-2553.35 2638.37,-152.38 190.16,877.38 20.27,1199.06 20.27,1775.18l-69.05 0c0,-958.78 -65.16,-1919.21 -600.94,-2610.15 -401.22,-517.4 -1064.27,-622.92 -1450.89,-63.16 -451.05,653.06 -365.13,1511.41 -365.13,2293.51l-172.64 -1243zm3896.32 -823.35c-382.73,-142.25 -649.79,-304.04 -907.62,-646.24 -23.49,-31.17 -124.11,-158.74 -130.33,-179.2 -104.88,-344.91 2331.74,110.22 2507.86,149.67l1711.97 394.23c-82.91,123.8 -487.49,586.97 -725.09,586.97 -751.62,0 -1842.48,-77.09 -2456.8,-305.43zm8364.52 2829.42c1748.19,-346.59 694.89,-1131.28 691.74,-1348.88 -1.25,-86.92 210.21,-569.67 205.27,-933.5 -1.71,-126.67 -24.38,-216.99 -57.98,-324.51 -44.42,-142.14 -58.82,-130.81 -117.05,-228.22 -90.1,-150.74 -94.47,-406.52 -151.86,-607.75 -73.14,-256.42 -291.08,-524.73 -492.62,-646.8 -852.96,-516.59 -2168.13,-782.38 -3156.25,-987.09 -420.76,-87.17 -861.2,-153.71 -1304.2,-215.02 -1136.17,-157.23 -923.85,-54.12 -1638.82,-640.01 -144.98,-118.8 -285.5,-215.34 -433.32,-326.29l-667.47 -471.95c-346.86,-224.67 -843.45,-467.65 -1258.11,-606.39 -786.75,-263.24 -1963.55,-357.23 -2710.3,-267.83 -378.96,45.35 -1069.56,5.77 -1480.67,4.61 -746.18,-2.1 -1987.71,128.88 -2644.63,393.83 -680.18,274.32 -1279.23,699.32 -1848.99,1154.92 -1290.96,1032.31 -1891.07,455.52 -2065.53,2492.4 -21.2,247.57 60.33,772.81 102.13,1034.86l69.42 275.85c0,-552.2 42.87,-944.33 185.12,-1368.64 111.28,-331.93 433.05,-792.92 857.58,-468.19 648.91,496.36 511.05,1896.44 511.05,2492.86l-69.05 0c0,-692.84 -41.44,-1460.81 -420.47,-2031 -568.19,-854.75 -1153.71,777.1 -842.97,2189.55 204.8,930.93 703.29,861.82 1575.62,844.18 416.4,-8.41 568.3,-191.21 723.65,-484.81 401.52,33.4 1795.91,307.61 2284.22,374.41 404.91,55.4 746.45,124.19 1153.83,192.76 1625.49,273.59 837.33,138.09 1352.05,719.61 389.2,439.72 1331.29,301.29 1977.35,301.49 864.92,0.28 727.49,-154.54 937.43,-184.39 40.65,-5.78 231.65,18.67 319.62,32.12l2161.21 117.75c253.2,-0.01 506.4,-0.03 759.61,0 125.16,0.01 258.07,4.31 382.28,-0.18 169.11,-6.12 146.25,-20.97 276.23,-30.74 243.14,-18.27 512.21,3.99 758.43,-2.32 171.25,-4.39 171.55,-32.86 342.7,-37.1 120.89,-3 257.88,10.47 376.72,-3.09 125.56,-14.34 174.21,-28.77 350.39,-29.41 417,-1.51 1856.17,-203.65 2352.54,-271.57 232.44,-31.81 445.02,-64.05 654.11,-105.51zm-13000.29 -1473.79c320.84,131.95 345.46,132.14 359.65,261.84l-3003.58 -863.52c-206.72,-53.93 -803.82,-152.65 -932.59,-344.95 244.37,0 1972.25,402.31 2140.72,448.86 644.82,178.17 860.53,261.16 1435.8,497.77zm4769.09 1135.15c-59.69,-59.35 -128,-179.03 -128,-286.33 0,-268.61 186.6,-512.08 448.86,-517.92 -123.57,184.53 -489.72,619.51 163.92,768.33 337.49,76.84 967.56,126.05 1322.05,128.12 179.73,1.05 189.51,28.61 343.44,36.37 372.41,18.76 806.46,-35.61 1140.43,-35.81 187.96,-0.12 249.17,27.92 381.87,35.32 153.4,8.55 192.33,-34.3 375.97,-35.93 1138.23,-10.06 1323.7,-20.34 2385.54,-100.46 267.6,-20.19 519.66,-50.99 759.61,-69.06l1517.42 -139.91c-140.91,192.33 -990.56,283.37 -1206.73,312.49 -110.78,14.94 -202.31,28.17 -331.71,48.11 -117.61,18.14 -226.84,15.82 -346.13,33.68l-1394.3 124.92c-898.55,21.57 -4885.03,242.08 -5432.25,-301.91zm-4064.17 -4602.3c-295.59,68.86 -2015.34,-63.46 -2488.2,-101.39 -415.95,-33.37 -818.7,-60.84 -1225.95,-120.62 -386.87,-56.8 -981.62,-30.97 -981.62,-364.97 0,-256.92 312.03,-466.88 472.83,-597.53 202.86,-164.83 376.87,-290.42 608.42,-427.4 652.42,-385.94 1038.02,-528.82 1853.61,-528.82 864.61,0 1348.71,1114.04 1633.22,1785.04 38.77,91.42 108.26,272.22 127.7,355.69zm2155.11 -296.37l-1430.02 54.67c-270.16,0 -624.44,-692.39 -766.31,-925.55l-614.8 -1008.01 2106.17 -103.61c769.14,0.95 1530.03,-39.54 2160.42,118.46 598.86,150.1 1093.69,439.58 1540.97,737.86 334.13,222.82 685.79,473.84 986.36,740.04 163.9,145.15 193.76,97.11 284.28,268.17l-2521.85 33.2c-168.43,1.47 -179.8,24.01 -310.64,34.65 -442.98,36.02 -1016.77,-16.45 -1434.57,50.12z"/>
  <path class="fil3" d="M5526.85 952.53c487.36,-193.98 1212.25,-254.43 1658.2,41.14 453.55,300.61 730.23,833.99 901.8,1342.5 29.82,88.37 14.27,80.91 50.58,156.59l-3650.34 -251.31c-219.31,-29.18 -290.5,-16.01 -458.47,-128.5l0 -69.05c0,-78.35 26.72,-77.68 72.62,-134.54 115.95,-143.62 418.54,-382.02 573.05,-497.32 247.26,-184.5 562.16,-343.94 852.55,-459.51zm467.65 1646.01c472.86,37.93 2192.61,170.25 2488.2,101.39 -19.44,-83.48 -88.93,-264.27 -127.7,-355.69 -284.5,-671 -768.61,-1785.04 -1633.22,-1785.04 -815.58,0 -1201.19,142.89 -1853.61,528.82 -231.55,136.97 -405.56,262.57 -608.42,427.4 -160.8,130.65 -472.83,340.61 -472.83,597.53 0,334.01 594.75,308.18 981.62,364.97 407.25,59.78 810.01,87.25 1225.95,120.62z"/>
 </g>
</svg>
