<?xml version="1.0" encoding="UTF-8"?>
<!DOCTYPE svg PUBLIC "-//W3C//DTD SVG 1.1//EN" "http://www.w3.org/Graphics/SVG/1.1/DTD/svg11.dtd">
<!-- Creator: CorelDRAW -->
<svg xmlns="http://www.w3.org/2000/svg" xml:space="preserve" width="50mm" height="716.527mm" version="1.1" style="shape-rendering:geometricPrecision; text-rendering:geometricPrecision; image-rendering:optimizeQuality; fill-rule:evenodd; clip-rule:evenodd"
viewBox="0 0 151.95 2177.5"
 xmlns:xlink="http://www.w3.org/1999/xlink"
 xmlns:xodm="http://www.corel.com/coreldraw/odm/2003">
 <defs>
  <style type="text/css">
   <![CDATA[
    .fil0 {fill:#B08E3D}
   ]]>
  </style>
 </defs>
 <g id="Слой_x0020_1">
  <metadata id="CorelCorpID_0Corel-Layer"/>
  <path class="fil0" d="M39.24 1656.26c-2.33,-18.65 -9.39,-37.3 -31.1,-40.04 28.77,44.55 -10.1,93.73 -2.74,145.81 2.49,17.59 10.17,25.22 18.05,38.87 -11.33,1.07 -18.07,6.42 -23.4,11.61 3.01,8.6 11.61,13.52 24.11,14.9 -8.36,11.14 -15.12,16.99 -18.48,37.24 -5.73,34.6 9.76,67.32 12.68,101.3 2.09,24.33 -0.89,28.27 -9.38,46.16 18.2,-4.51 28.99,-18.5 30.05,-40.08 6.53,-0.68 11.08,-2.13 15.14,-3.86 -2.55,-4.75 -0.93,-2.81 -5.84,-5.55 -6.33,-3.54 -8.32,-3.89 -9.93,-12.42 11.08,2.45 22.56,3.96 21.93,-8.67 -17.25,4.58 -27.77,-12.23 -27.98,-27.21 10.07,3.73 17.93,14.08 33.46,10.52 25.54,-5.85 34.32,-39.4 23.65,-60.17 -8.3,-16.16 -15.86,-6.57 -29.94,-13.92 -0.9,-4.21 -1.45,-2.03 -0.62,-6.68l2.13 -5.14c-0.53,-0.38 0.69,-1.18 1,-1.78 -7.54,0.59 -9.84,2.37 -14.14,5.34l-1.06 12.15c-7.99,2.99 -6.96,2.8 -11.93,8.12 3.69,5.42 2.85,4.99 11.45,6.97 1.61,14.25 2.48,17.47 17.22,17.87l-1.66 -2.82c-10.26,-18.09 20.99,-17.29 16.05,8.28 -3.81,19.73 -25.92,14.26 -36.35,5.99 -9.18,-7.27 -17.21,-26.45 -12.1,-44.96 13.37,-48.48 97.35,-35.45 99.68,10.49 1.25,24.72 -22.64,63.64 -33.11,81.02 -14.77,24.52 -28.83,48.77 -43.1,72.78 -18.51,31.15 -57.82,86.01 -41.68,125.82 5.72,14.11 14.14,22.7 27.56,29.55 12.53,6.39 91.76,2.55 112.39,3.2 -5.03,-8.66 -9.74,-9.17 -17.34,-12.56 -4.57,-2.04 -3.03,-1.44 -5.73,-4.02 24.46,-13.36 19.57,-61.71 13.89,-90.01 -5.86,-29.16 -18.1,-69.8 1.66,-91.31 -21.09,1.31 -30.1,21.72 -30.59,40.13 -10.25,0.4 -9.87,0.32 -15.39,5.76 8.81,7.15 14.65,1.23 15.47,15.68 -12.39,-3.4 -19.5,-3.28 -22.47,8.74 18.42,-3.27 28.05,9.97 29.05,27.1 -12.56,-4.77 -19.47,-16.79 -38.38,-8.83 -22.79,9.59 -32.71,51.38 -12.28,66.35 9.73,7.12 35.46,-0.9 20.57,19.21 14.38,0.67 14.08,-4.32 16.01,-17.25 8.19,-3.51 8.77,-3.22 11.81,-9.22 -4.23,-3.45 -5.25,-4.16 -12.26,-5.86 -0.63,-13.85 -2.63,-17.41 -16.57,-17.64 0.29,0.56 0.71,1.2 0.94,1.63 0.22,0.41 0.64,1.08 0.89,1.58 2.23,4.35 2.27,6.96 1.03,11.25 -16.77,3.9 -24.43,-14.62 -14.03,-27.24 8.45,-10.25 23.81,-7.03 32.71,2.34 8.58,9.03 16.03,19.48 13.55,38.05 -8.12,60.84 -146.52,50.88 -83.88,-57.15l56.24 -95.84c19.28,-33.31 69.94,-106.3 37.78,-142.5 -9.08,-10.22 -15.52,-14.33 -27.63,-21.64 22.95,-7.35 41.71,-30.38 37.53,-62.3 -3.04,-23.16 -19.98,-53.13 -30.28,-70.61l-73.67 -125.89c-10.78,-18.71 -27.58,-55.31 -8.47,-75.22 29.36,-30.57 86.83,-24.65 92.33,18.04 1.87,14.55 -2.87,27.63 -12.83,36.79 -36.8,33.84 -53.03,-31.26 -18.97,-24.1 0.49,2.61 1.27,4.42 0.43,7.53l-3.96 7.17c13.68,-0.43 16.67,-3.65 16.68,-17.67 7.72,-2.09 9.56,-2.84 12.56,-7.91 -4.61,-4.9 -4.86,-4.12 -12.12,-7.56l-2.21 -14.08c-4.02,-1.88 -7.25,-3.27 -13.77,-2.66 16.45,18.53 -12.63,12.43 -21.75,19.95 -19.71,16.26 -8.71,57.89 15.19,66.16 18.52,6.41 24.37,-5.4 36.79,-9.51 -1.23,17.13 -10.51,30.63 -29.2,26.91 3.13,12.7 11.21,11.61 22.85,8.92 -1.7,13.39 -9.25,8.35 -14.95,16.56 6.11,5.96 5.17,4.24 14.24,5.16 2.07,18.96 9.59,37.79 31.39,39.93 -36.56,-39.01 29.36,-127.71 -9.3,-175.95l-6.46 -8.67c12.15,-1.14 18,-6.01 23.59,-12.1 -3.86,-7.47 -11.59,-13.08 -24.11,-14.43 23.83,-33.64 22.92,-48.54 14.44,-92.23 -3.16,-16.29 -7.35,-29.92 -8.78,-47.7 -1.76,-21.85 1.42,-28.03 10.47,-45.06 -17.18,3.4 -30.59,18.72 -30.84,40.1 -6.3,1.13 -11.21,2.31 -15.19,4.01 4.15,8.44 13.57,6.47 15.62,17.84 -11.78,-1.5 -21.67,-4.04 -22.16,8.99 16.88,-4.79 28.02,10.09 28.19,27.14 -6.83,-2.03 -38.13,-29.81 -57.65,10.8 -5.48,11.39 -5.16,28.55 0.55,39.08 8.81,16.25 17.54,7.14 29.8,13.8 2.75,10.5 0.95,6.86 -2.27,13.4 13.37,-0.83 15.07,-4.48 15.18,-17.51 7.07,-2.33 9.31,-3.61 12.18,-9.52 -4.9,-4.33 -4.23,-3.47 -11.62,-5.53 -2.04,-13.34 -3.36,-17.23 -17.2,-17.83 3.39,5.59 5.87,6.56 2.89,13.38 -16.32,9.18 -23.31,-15.18 -13.51,-26.65 10.13,-11.86 27.68,-2.74 34.26,3.82 22.26,22.21 11.21,55.42 -10.36,67.6 -25.76,14.55 -59.56,3.87 -72.85,-14.78 -16.09,-22.56 2.58,-56.87 11.89,-74.73 23.06,-44.29 50.27,-82.28 73.64,-125.94 26.39,-49.31 55.18,-101.17 -7.81,-131.56 20.79,-12.33 42.05,-24.34 37.25,-61.97 -5.72,-44.91 -79.77,-150.31 -103.13,-195.52 -10.03,-19.42 -28.2,-51.74 -10.86,-75.69 12.27,-16.94 45.62,-29.05 72.32,-14.33 23.05,12.71 31.24,46.57 9.45,67.65 -6.79,6.57 -24.75,15.19 -33.9,4.35 -7.68,-9.09 -7.86,-31.92 13.26,-28.47 2.53,6.74 1.95,9.69 -2.71,13.92 12.97,2.05 15.86,-5.21 17.15,-16.97 7.17,-2.1 7.88,-1.43 11.6,-6.65 -3.89,-5.25 -3.74,-5.08 -11.7,-8.53 -0.9,-12.14 -2.81,-17.65 -15.47,-17.19 3.06,7.02 5.56,3.96 2.04,13.02 -11.47,6.86 -22.56,-0.59 -30.38,15.46 -5.58,11.45 -4.48,28.35 1.11,38.98 19.89,37.82 47.43,12.08 56.95,9.44 -0.68,17.86 -11.04,31.01 -28.59,26.92 1.79,13.12 10.03,10.64 22.46,9.31 -2.31,11.52 -7.4,9.91 -15.79,14.87 4.08,6.33 5.91,4.98 15.4,6.84 -0.05,19.95 10.37,35.02 30.26,39.77 -0.28,-0.53 -0.65,-1.2 -0.88,-1.58 -34.15,-55.34 37.13,-128.39 -14.8,-182.93 12.69,-2 18.98,-6.22 23.74,-13.81 -12.48,-12.16 -17.02,-10.05 -23.27,-16.14 24.18,-12.88 19.7,-61.54 13.89,-90 -5.6,-27.44 -17.83,-72.11 1.68,-91.17 -19.26,-0.12 -30.45,22.16 -30.63,38.96 -8.37,2.25 -10.65,2.36 -15.5,6.75 7.15,6.03 14.63,2.47 15.49,15.59 -12.54,-2.64 -19.32,-3.72 -22.39,8.97 18.51,-3.41 28.14,10.06 28.95,26.9 -12.61,-4.53 -19.02,-16.67 -38.39,-8.73 -23.42,9.61 -31.78,51.6 -12.1,66.38 9.97,7.48 35.11,-1.35 20.44,19.16 16.43,0.93 12.44,-6.04 16.75,-16.78 7.01,-4.91 7.58,-2.18 11.05,-9.53 -4.58,-3.86 -4.69,-4.11 -12.36,-5.84 -0.13,-13.82 -2.27,-17.59 -16.21,-17.64l3.58 7.24c0.75,3.39 -0.2,4.65 -0.93,7.22 -17.29,3.54 -24.07,-15.25 -14.02,-27.32 18.64,-22.39 51.12,12.89 46.04,42.2 -2.56,14.76 -12.1,22.9 -21.32,28.13 -38.04,21.57 -111.93,-2.88 -61.65,-88.3 13,-22.09 24.1,-41.57 36.96,-63.77 6.49,-11.2 12.55,-20.16 19.3,-32.04 17.02,-29.96 43.78,-66.48 47.22,-102.53 2.3,-24.12 -13.13,-54.47 -38.41,-59.69 26.03,-11.52 40.28,-28.81 38.62,-58.16 -2.46,-43.46 -75.66,-146.77 -98.91,-191.65 -9.52,-18.38 -28.84,-47.21 -20.69,-72.8 17.21,-54.03 122.4,-32.76 96.58,28.34 -12.26,29.02 -52.98,36.06 -46.67,-3.7 5.48,-6.05 8.07,-8.03 17.3,-6.17 0.54,2.66 1.55,11.65 -2.54,13.17 -0.77,0.28 -0.64,1.05 -0.91,1.59 13.62,-0.44 16.61,-3.6 16.67,-17.63 7.8,-2.42 9.18,-2.75 12.46,-7.99 -3.67,-4.18 -5.82,-5.14 -12.12,-7.48l-1.93 -14.27c-4.17,-1.63 -7.49,-3.11 -13.88,-2.46 16.38,18.56 -13.45,12.42 -21.97,19.81 -8.23,7.14 -12.03,25.22 -7.94,39.96 3.37,12.12 11.26,22.25 23.26,26.3 18.79,6.35 24.14,-5.28 36.9,-9.47 -1.56,17.14 -10.56,30.36 -29.15,26.98 3.64,12.29 10.16,11.5 22.74,8.83 -0.99,6.71 -0.92,7.31 -5.7,10.3l-9.25 6.29c6.02,5.99 5.36,4.05 14.25,5.21 2.28,21.86 11.98,37.12 31.14,40 -28.77,-38.27 8.69,-99.36 2.65,-146 -2.43,-18.81 -9.38,-26.26 -18.34,-37.97 6.19,-2.47 13.88,-3.25 19.24,-8.37 3.29,-3.15 1.52,-1.05 3.82,-5.9 -20.5,0.16 -99.91,-3.23 -112.47,3.6 -30.2,16.44 -36.38,44.81 -26.49,76.3 11.69,37.22 58.47,109.68 80.3,145.87 18.69,31 58.53,88.34 19.54,117.38 -42.45,31.61 -107.24,-8.47 -77.44,-56.58 5.3,-8.55 24.15,-24.35 37.51,-11.81 12.2,11.45 5.67,36.17 -11.27,28.46 -1.69,-2.98 -3.13,0.31 -1.44,-6.81l3.86 -7.1c-14.34,0.53 -16.28,4.49 -16.62,18.42 -8.09,1.28 -9.36,1.76 -12.28,7.34 4.78,5.08 4.79,3.72 12.34,7.44 -0.04,12.42 1.8,18.43 15.61,16.41 -5.14,-4.43 -7.34,-12.76 2.28,-14.75 8.46,-1.75 13.31,0.1 19.49,-5.13 19.4,-16.41 8.59,-57.54 -15.22,-65.8 -17.97,-6.24 -25.53,4.51 -36.09,9.37 -1.95,-16.46 11.33,-30.22 28.42,-27.04 -2.91,-12.37 -11.16,-11.61 -22.76,-8.79 1.22,-10.33 5.1,-12.55 15.91,-13.78 -4.89,-8.43 -4.77,-7.15 -15.18,-7.89 -2.11,-19.43 -9.83,-36.7 -31.14,-40.25 9.42,14.94 12.18,21.38 10.21,45.18 -3.28,39.66 -25.57,84.26 -5.95,122.61l11.17 17.14c-10.88,0.69 -18.9,6.77 -23.55,11.7 2.93,8.15 11.96,13.49 24.16,14.7 -3.77,5.55 -6.94,7.15 -11.37,15.86 -24.45,48.02 14.15,99.18 4.71,148.9 -0.63,3.31 -1.77,7.72 -3.15,10.36 -3.11,5.98 -2.55,2.59 -5.32,9.57 18.41,-4.32 28.67,-18.85 30.07,-39.97 16.76,-2.37 11.69,-1.11 14.57,-6.69 -9.89,-5.35 -12.65,-2.75 -14.87,-14.77 11.99,1.55 21.78,3.02 21.75,-9.25 -16.98,4.97 -28.47,-10.84 -28.03,-27.09 10,3.84 17.69,14.03 33.26,10.4 25.56,-5.95 34.3,-38.93 23.7,-60.05 -7.51,-14.95 -15.16,-7.3 -30.03,-13.79 -0.83,-4.23 -1.41,-2.15 -0.51,-6.77l3.27 -6.96c-12.25,0.76 -15.67,4.99 -15.26,17.58 -7.78,2.47 -9.24,3.08 -12.4,9.78 3.51,2.13 6.35,3.95 11.81,5.2 1.58,14.05 2.75,17.39 17.13,18 -2.11,-4.43 -10.02,-15.51 2.97,-15.52 20.85,-0 13.05,46.01 -16.59,31.94 -23.26,-11.04 -31.01,-49.62 -8.75,-68.69 21.39,-18.32 54.82,-16.25 75.02,2.4 22.97,21.2 11.5,48.87 -1.64,74.78 -23.2,45.73 -51.28,85.73 -75.63,129.68 -22.67,40.91 -52.13,87.72 -9.38,125.59 4.92,4.36 8.26,5.11 15.54,8.53 -4.05,3.28 -9.28,4.99 -14.69,9.34 -42.25,34 -15.47,82.59 6.48,121.09 24.14,42.35 48.19,81.42 71.97,123.79 17.42,31.04 37.93,79.62 -10.68,96.75 -38.67,13.63 -93.8,-20.31 -61.97,-65.81 23.87,-34.12 57.51,-1.98 36.3,19.08l-11.72 -0.08c-2.31,-6.87 0.16,-9.05 2.13,-14.73 -12.12,0.32 -15.69,5.36 -16.24,17.66 -7.16,2.06 -7.85,1.42 -11.83,6.57 3.39,5.35 3.77,5.57 11.66,8.48 1.37,10.31 1.55,18.12 15.76,17.21 -10.55,-18.14 4.89,-12.41 16.93,-16.92 18.29,-6.86 17.07,-36.8 10.05,-50.34 -19.85,-38.29 -49.6,-11.62 -57.05,-9.47 0.89,-18.17 10.75,-30.6 28.77,-27.06 -1.84,-12.62 -10.14,-11.05 -22.56,-8.93 1.42,-9.18 5.64,-9.93 12.95,-13.83l2.49 -1.77c-5.16,-5.61 -5.22,-4.62 -14.9,-6.22 -0.45,-19.6 -10.43,-35.96 -30.41,-39.91 0.28,0.54 0.62,1.21 0.86,1.6 18.19,30.21 6.97,58.5 -0.24,93.79 -7.56,37 -6.94,68.1 15.23,89.19 -12.34,1.48 -19.58,6.38 -23.92,13.63 7.71,9.2 8.87,10.41 23.66,13.63 -9.17,12.44 -16.04,19.88 -18.61,37.66 -2.28,15.72 0.99,38.18 4.05,53.36 3.27,16.21 7.27,29.89 8.79,47.46 1.9,22.08 -0.12,30.46 -9.83,45.72 17.84,-3.66 30.32,-18.24 30.32,-39.74 9.42,-1.77 10.29,-1.6 15.49,-6.65 -8.73,-6.23 -12.94,-1.1 -15.86,-15.15 13.08,1.75 19.56,3.96 22.79,-9.17 -19.03,3.73 -27.83,-9.88 -29.17,-27 5.69,1.53 39.48,29.76 58.38,-11.7 4.83,-10.59 4.89,-27.58 -0.47,-37.62 -9.51,-17.78 -43.84,-6.41 -27.51,-27.38 -16.22,-1.06 -12.92,5.34 -16.65,16.58 -5.95,4.01 -8.45,3.32 -11.5,10.57l12.44 5.24c0.34,13.39 3.27,17.01 15.58,17.61 -0.63,-5.95 -6.11,-9.7 -1.22,-14.19 4,-3.67 11.58,-0.28 13.95,2.69 17.95,28.23 -23.78,43.79 -42.12,11.69 -15.64,-27.37 3.62,-55.14 25.85,-62.25 29.43,-9.41 60.16,5.73 68.05,27.27 11.97,32.7 -36.5,102.75 -55.53,135.33 -26.64,45.6 -86.39,121.09 -52.85,168.82 7.77,11.05 14.53,12.24 27.22,20.05 -24.68,8.1 -40.36,32.16 -37.8,59.27 3.5,37.15 44.4,97.59 63.5,130.08 12.19,20.74 23.31,40.26 35.85,61.07 9.69,16.08 27.59,49.83 20.14,72.96 -6.57,20.4 -35.6,35.85 -64.49,28.57 -50.08,-12.61 -40.21,-77.37 -5.77,-82.11 17.28,-2.38 22.77,11.72 20.38,27.23 -4.23,8.95 -24.8,11.07 -15.78,-5.43l1.81 -2.92c-15.6,0.32 -14.69,3.94 -17.39,18.11 -8.38,1.77 -9.01,2.8 -11.91,7.73 4.78,4.75 5.02,3.93 12.77,7.23 -0.41,12.08 2.1,18.79 15.44,16.44 -5.05,-4.5 -4.6,-3.39 -3.13,-12.69 14.96,-6.08 22.74,0.83 30.65,-14.93 5.9,-11.76 4.93,-27.8 -0.33,-38.63 -17.18,-35.38 -42.47,-17.1 -56.75,-9.93 -1.99,-17.37 10.99,-30.31 28.52,-27.07 -3.12,-13.33 -11.58,-11.12 -22.93,-8.86 2.17,-13.26 10.16,-9.28 15,-16.7 -6.14,-5.53 -5.46,-4.14 -14.2,-4.98z"/>
 </g>
</svg>
