<?xml version="1.0" encoding="UTF-8"?>
<!DOCTYPE svg PUBLIC "-//W3C//DTD SVG 1.1//EN" "http://www.w3.org/Graphics/SVG/1.1/DTD/svg11.dtd">
<!-- Creator: CorelDRAW -->
<svg xmlns="http://www.w3.org/2000/svg" xml:space="preserve" width="239.4mm" height="64.9269mm" version="1.1" style="shape-rendering:geometricPrecision; text-rendering:geometricPrecision; image-rendering:optimizeQuality; fill-rule:evenodd; clip-rule:evenodd"
viewBox="0 0 23431.09 6354.66"
 xmlns:xlink="http://www.w3.org/1999/xlink"
 xmlns:xodm="http://www.corel.com/coreldraw/odm/2003">
 <defs>
  <style type="text/css">
   <![CDATA[
    .fil0 {fill:#DCAD43}
   ]]>
  </style>
 </defs>
 <g id="Слой_x0020_1">
  <metadata id="CorelCorpID_0Corel-Layer"/>
  <path class="fil0" d="M1683.6 2493.64l432.49 517.92c-102.76,76.84 -257.43,104.36 -385.64,101.71 -139.19,-2.88 -303.57,-44.1 -411.83,-99.2 -783.05,-398.45 -603.62,-1634.48 -238.39,-2032.67 652.15,-711 2069.44,-54.86 1530.77,1556.43 -8.97,-5.78 -21.27,-26.44 -25.51,-19.33 -4.12,6.89 -18.97,-14.4 -24.46,-19.15 -250.64,-216.89 -322.45,-426.01 -503.41,-510.84 -74.76,117.46 -100.91,134.45 -177.98,237.47 -68.86,92.05 -120.23,169.22 -196.03,267.66zm875.86 1134.88c105.19,102.43 98.93,129.77 175.02,212.15l204.78 209.88c84.51,-48.7 474.46,-284.26 529.86,-335.91 -57.98,-187.79 -319.33,-317.84 -397.79,-555.22 625.48,-406.37 762.68,-2924.29 -1064.8,-3145.2 -694.61,-83.97 -1393.14,206.35 -1729.52,814.38 -344.62,622.93 -364.52,1506.67 -77.32,2096.85 76.08,156.33 259.9,383.31 357.04,467.13 843.09,727.44 1664.62,277.38 2002.73,235.94z"/>
  <path class="fil0" d="M5169.4 921.32c49.79,57.98 14.56,-10.87 67.27,109.09l405.19 1299.18 -893.31 0.52 420.85 -1408.79zm-1634.49 2772.48l750.93 -5.18 250.57 -710.09 1318.06 -10.91 210.63 710.21 833.16 11.45c-107.77,-206.35 -1130.83,-3414.93 -1164.14,-3553.38l-1076.13 -1.02c-45.42,268.38 -187.27,623.07 -270.24,903.03l-852.85 2655.88z"/>
  <path class="fil0" d="M18555.08 1906.67c-205.08,408.65 -909.7,1428.97 -1098.25,1782.34l887.46 0.95c77.78,-179.34 250.91,-408.48 359.22,-585.97 123.6,-202.56 255.57,-406.9 365.84,-604.64 84.82,94.27 120.66,180.02 185.07,290.1l547.67 897.95 887.01 -0.09c-56.25,-128.6 -196.7,-313.73 -272.07,-443.27l-845.05 -1371.89c52.04,-155.9 173.81,-288.99 260.81,-435.92 145.72,-246.11 744.69,-1164 779.34,-1302.32l-908.65 3.49c-81.51,190.24 -198.4,348.06 -309.08,541.89l-313.53 583.03c-8.3,-6.86 -20.13,-28.21 -24.08,-21.54 -4.2,7.13 -29.15,-26.05 -43.59,-42.72 -7.11,-8.2 -43.34,-56.9 -47.49,-62.91 -38.23,-55.36 -59.34,-98.78 -88.23,-149.99l-504.31 -840.82 -895.56 -10.67 809.38 1309.9c89.11,127.14 214.44,312.8 268.07,463.12z"/>
  <polygon class="fil0" points="21109.87,629.13 21110.01,3686.04 23431.09,3690.38 23428.23,2984.08 21859.94,2981.09 21875.21,2304.21 23184.86,2285.1 23178.12,1589.94 21860.06,1581.58 21873.03,856.34 23336.5,845.62 23334.65,134.18 21107.79,136.42 "/>
  <path class="fil0" d="M17086.7 138.17l-708.18 -2.98c6.67,587.94 0.92,1180.81 1.07,1771.47 0.16,600 7.55,1159.75 -664.8,1147.77 -759.25,-13.53 -647.45,-775.08 -649.21,-1113.24 -3.09,-591.6 -18.21,-1219.43 7.56,-1807.61l-775.22 5.23c18.37,728.1 -71.56,1841.44 25.63,2511.95 93.46,644.73 627.82,1128.19 1356.47,1144.56 727.82,16.34 1291.72,-457.98 1384.61,-1117.71 53.15,-377.39 -3.63,-1943.15 22.07,-2539.44z"/>
  <path class="fil0" d="M7263.2 352.91l1.58 504.38 1665.14 -2.11 -1583 2107.98c-155.75,206.29 -116.98,394.41 -114.11,717.12l2749.2 7.31 1.56 -691.89 -1752.8 2.83c9.89,-114.67 5.39,-54.75 86.72,-163.93l1616.12 -2148.74c77.66,-130.88 46.62,-377.27 50.96,-555.49l-2720.43 4.56 -0.94 217.98z"/>
  <polygon class="fil0" points="11765.87,3690.2 13845.54,3688.33 13850.75,2984.32 12511.26,2988.38 12527.3,137 11759.65,136.14 "/>
  <path class="fil0" d="M16241.62 6318.2l410.45 -0.7 -3.2 -1151.9c100.27,82.15 682.78,981.08 790.67,1149.75l419.96 1.05 -2.41 -1866.54 -405.89 5.47 8.25 1197.23 -798.3 -1197.53 -421.65 -4.23 2.12 1867.4z"/>
  <path class="fil0" d="M3812.27 4826.02c502.17,24.23 821.41,11.12 829.7,568.22 9.17,615.94 -544.06,566.24 -824.57,582.42l-5.13 -1150.64zm-403.08 1493.14c385.69,-7.78 861.73,58.74 1178.06,-108.34 660.47,-348.83 612.99,-1301.58 45.92,-1643.07 -262.81,-158.26 -882.79,-106.55 -1228.15,-116.36l4.17 1867.77z"/>
  <path class="fil0" d="M20336.93 5264.78l-814.18 2.97 -2.23 327.64 444.33 2.58c-31.83,738.49 -1272.27,449.02 -958.86,-462.97 116.32,-338.51 560.18,-529.45 920.95,-110.31l343.91 -134.94c-191.95,-486.37 -827.93,-547.66 -1192.72,-375.39 -952.03,449.59 -580.54,2032.37 588.67,1820.96 279.01,-50.44 389.66,-140.32 548.04,-305.53 190.05,-198.24 105.01,-427.74 122.1,-765z"/>
  <path class="fil0" d="M10289.87 4915.55c76.24,96.28 216.4,578.49 250.1,704.84l-490.58 -0.6 240.49 -704.24zm-920.18 1404.2l449 -3.41c10.83,-59.61 24.71,-117.3 43.51,-173.07 30.39,-90.16 36.31,-105.38 86.2,-173.19l729.48 -8.27 103.38 355.3 439.09 -1.17c-124.04,-444.02 -489.42,-1320.88 -659.19,-1856.65l-509.16 -6.44 -682.31 1866.9z"/>
  <path class="fil0" d="M5699.17 6318.57l1271.75 -2.28 -3.48 -349.62 -817.09 1.9c-33.87,-112.57 -22.55,-268.74 -22.22,-389.74l737.16 -12.62 -19.24 -319.25 -726.24 -19.01 10.23 -376.36 842.47 -18.27 -2.81 -379.19 -1274.18 0.75 3.66 1863.68z"/>
  <polygon class="fil0" points="7547.87,4852.71 8127.89,4848.21 8127.72,6318.25 8542.62,6315.71 8538.18,4866.38 9092.38,4851.58 9093.96,4458.74 7540.17,4455.45 "/>
  <polygon class="fil0" points="13133.24,6318.47 14355.91,6316.22 14349.25,5968.42 13537.21,5963.74 13550.19,4453.7 13124.96,4454.41 "/>
  <polygon class="fil0" points="15014.8,6307.06 15441.03,6316.9 15439.9,4448.86 15003.07,4457.44 "/>
  <polygon class="fil0" points="11873.07,6305.21 12298.92,6318.41 12294.65,4447.06 11865.87,4457.9 "/>
 </g>
</svg>
